  0
SECTION
  2
HEADER
  9
$ACADVER
  1
AC1009
  9
$DWGCODEPAGE
  3
ansi_1252
  9
$INSBASE
 10
0.0
 20
0.0
 30
0.0
  9
$EXTMIN
 10
0.0
 20
0.0
 30
0.0
  9
$EXTMAX
 10
74.5
 20
60.5
 30
0.0
  9
$LIMMIN
 10
0.0
 20
0.0
  9
$LIMMAX
 10
12.0
 20
9.0
  9
$ORTHOMODE
 70
     0
  9
$REGENMODE
 70
     1
  9
$FILLMODE
 70
     1
  9
$QTEXTMODE
 70
     0
  9
$MIRRTEXT
 70
     1
  9
$DRAGMODE
 70
     2
  9
$LTSCALE
 40
1.0
  9
$OSMODE
 70
    37
  9
$ATTMODE
 70
     1
  9
$TEXTSIZE
 40
0.2
  9
$TRACEWID
 40
0.05
  9
$TEXTSTYLE
  7
STANDARD
  9
$CLAYER
  8
CUTS
  9
$CELTYPE
  6
BYLAYER
  9
$CECOLOR
 62
   256
  9
$DIMSCALE
 40
1.0
  9
$DIMASZ
 40
0.18
  9
$DIMEXO
 40
0.0625
  9
$DIMDLI
 40
0.38
  9
$DIMRND
 40
0.0
  9
$DIMDLE
 40
0.0
  9
$DIMEXE
 40
0.18
  9
$DIMTP
 40
0.0
  9
$DIMTM
 40
0.0
  9
$DIMTXT
 40
0.18
  9
$DIMCEN
 40
0.09
  9
$DIMTSZ
 40
0.0
  9
$DIMTOL
 70
     0
  9
$DIMLIM
 70
     0
  9
$DIMTIH
 70
     1
  9
$DIMTOH
 70
     1
  9
$DIMSE1
 70
     0
  9
$DIMSE2
 70
     0
  9
$DIMTAD
 70
     0
  9
$DIMZIN
 70
     0
  9
$DIMBLK
  1

  9
$DIMASO
 70
     1
  9
$DIMSHO
 70
     1
  9
$DIMPOST
  1

  9
$DIMAPOST
  1

  9
$DIMALT
 70
     0
  9
$DIMALTD
 70
     2
  9
$DIMALTF
 40
25.4
  9
$DIMLFAC
 40
1.0
  9
$DIMTOFL
 70
     0
  9
$DIMTVP
 40
0.0
  9
$DIMTIX
 70
     0
  9
$DIMSOXD
 70
     0
  9
$DIMSAH
 70
     0
  9
$DIMBLK1
  1

  9
$DIMBLK2
  1

  9
$DIMSTYLE
  2
STANDARD
  9
$DIMCLRD
 70
     0
  9
$DIMCLRE
 70
     0
  9
$DIMCLRT
 70
     0
  9
$DIMTFAC
 40
1.0
  9
$DIMGAP
 40
0.09
  9
$LUNITS
 70
     2
  9
$LUPREC
 70
     2
  9
$SKETCHINC
 40
0.1
  9
$FILLETRAD
 40
0.5
  9
$AUNITS
 70
     0
  9
$AUPREC
 70
     0
  9
$MENU
  1
.
  9
$ELEVATION
 40
0.0
  9
$PELEVATION
 40
0.0
  9
$THICKNESS
 40
0.0
  9
$LIMCHECK
 70
     0
  9
$CHAMFERA
 40
0.5
  9
$CHAMFERB
 40
0.5
  9
$SKPOLY
 70
     0
  9
$TDCREATE
 40
2457289.019268114
  9
$TDUPDATE
 40
2457289.019268125
  9
$TDINDWG
 40
0.0000000116
  9
$TDUSRTIMER
 40
0.0000000116
  9
$USRTIMER
 70
     1
  9
$ANGBASE
 50
0.0
  9
$ANGDIR
 70
     0
  9
$PDMODE
 70
     0
  9
$PDSIZE
 40
0.0
  9
$PLINEWID
 40
0.0
  9
$COORDS
 70
     1
  9
$SPLFRAME
 70
     0
  9
$SPLINETYPE
 70
     6
  9
$SPLINESEGS
 70
     8
  9
$ATTDIA
 70
     0
  9
$ATTREQ
 70
     1
  9
$HANDLING
 70
     1
  9
$HANDSEED
  5
E5
  9
$SURFTAB1
 70
     6
  9
$SURFTAB2
 70
     6
  9
$SURFTYPE
 70
     6
  9
$SURFU
 70
     6
  9
$SURFV
 70
     6
  9
$UCSNAME
  2

  9
$UCSORG
 10
0.0
 20
0.0
 30
0.0
  9
$UCSXDIR
 10
1.0
 20
0.0
 30
0.0
  9
$UCSYDIR
 10
0.0
 20
1.0
 30
0.0
  9
$PUCSNAME
  2

  9
$PUCSORG
 10
0.0
 20
0.0
 30
0.0
  9
$PUCSXDIR
 10
1.0
 20
0.0
 30
0.0
  9
$PUCSYDIR
 10
0.0
 20
1.0
 30
0.0
  9
$USERI1
 70
     0
  9
$USERI2
 70
     0
  9
$USERI3
 70
     0
  9
$USERI4
 70
     0
  9
$USERI5
 70
     0
  9
$USERR1
 40
0.0
  9
$USERR2
 40
0.0
  9
$USERR3
 40
0.0
  9
$USERR4
 40
0.0
  9
$USERR5
 40
0.0
  9
$WORLDVIEW
 70
     1
  9
$SHADEDGE
 70
     3
  9
$SHADEDIF
 70
    70
  9
$TILEMODE
 70
     1
  9
$MAXACTVP
 70
    64
  9
$PLIMCHECK
 70
     0
  9
$PEXTMIN
 10
1.000000000000000E+20
 20
1.000000000000000E+20
 30
1.000000000000000E+20
  9
$PEXTMAX
 10
-1.000000000000000E+20
 20
-1.000000000000000E+20
 30
-1.000000000000000E+20
  9
$PLIMMIN
 10
0.0
 20
0.0
  9
$PLIMMAX
 10
12.0
 20
9.0
  9
$UNITMODE
 70
     0
  9
$VISRETAIN
 70
     1
  9
$PLINEGEN
 70
     0
  9
$PSLTSCALE
 70
     1
  0
ENDSEC
  0
SECTION
  2
TABLES
  0
TABLE
  2
VPORT
 70
     1
  0
VPORT
  2
*ACTIVE
 70
     0
 10
0.0
 20
0.0
 11
1.0
 21
1.0
 12
37.25
 22
30.25
 13
0.0
 23
0.0
 14
0.5
 24
0.5
 15
0.5
 25
0.5
 16
0.0
 26
0.0
 36
1.0
 17
0.0
 27
0.0
 37
0.0
 40
61.71
 41
1.231404958677686
 42
50.0
 43
0.0
 44
0.0
 50
0.0
 51
0.0
 71
     0
 72
   100
 73
     1
 74
     3
 75
     0
 76
     0
 77
     0
 78
     0
  0
ENDTAB
  0
TABLE
  2
LTYPE
 70
     1
  0
LTYPE
  2
CONTINUOUS
 70
     0
  3
Solid line
 72
    65
 73
     0
 40
0.0
  0
ENDTAB
  0
TABLE
  2
LAYER
 70
     5
  0
LAYER
  2
0
 70
     0
 62
     7
  6
CONTINUOUS
  0
LAYER
  2
HOLES
 70
     0
 62
     1
  6
CONTINUOUS
  0
LAYER
  2
PUNCH
 70
     0
 62
   255
  6
CONTINUOUS
  0
LAYER
  2
SHEET
 70
     0
 62
   192
  6
CONTINUOUS
  0
LAYER
  2
CUTS
 70
     0
 62
     7
  6
CONTINUOUS
  0
ENDTAB
  0
TABLE
  2
STYLE
 70
     1
  0
STYLE
  2
STANDARD
 70
     0
 40
0.0
 41
1.0
 50
0.0
 71
     0
 42
0.2
  3
txt
  4

  0
ENDTAB
  0
TABLE
  2
VIEW
 70
     0
  0
ENDTAB
  0
TABLE
  2
UCS
 70
     0
  0
ENDTAB
  0
TABLE
  2
APPID
 70
     1
  0
APPID
  2
ACAD
 70
     0
  0
ENDTAB
  0
TABLE
  2
DIMSTYLE
 70
     1
  0
DIMSTYLE
  2
STANDARD
 70
     0
  3

  4

  5

  6

  7

 40
1.0
 41
0.18
 42
0.0625
 43
0.38
 44
0.18
 45
0.0
 46
0.0
 47
0.0
 48
0.0
140
0.18
141
0.09
142
0.0
143
25.4
144
1.0
145
0.0
146
1.0
147
0.09
 71
     0
 72
     0
 73
     1
 74
     1
 75
     0
 76
     0
 77
     0
 78
     0
170
     0
171
     2
172
     0
173
     0
174
     0
175
     0
176
     0
177
     0
178
     0
  0
ENDTAB
  0
ENDSEC
  0
SECTION
  2
BLOCKS
  0
BLOCK
  8
0
  2
$MODEL_SPACE
 70
     0
 10
0.0
 20
0.0
 30
0.0
  3
$MODEL_SPACE
  1

  0
ENDBLK
  5
21
  8
0
  0
BLOCK
 67
     1
  8
0
  2
$PAPER_SPACE
 70
     0
 10
0.0
 20
0.0
 30
0.0
  3
$PAPER_SPACE
  1

  0
ENDBLK
  5
1D
 67
     1
  8
0
  0
ENDSEC
  0
SECTION
  2
ENTITIES
  0
CIRCLE
  5
3C
  8
HOLES
 10
28.41768524897689
 20
28.75294792295274
 30
0.0
 40
0.2125
  0
CIRCLE
  5
3D
  8
HOLES
 10
20.33274767838529
 20
28.75294792295274
 30
0.0
 40
0.2125
  0
CIRCLE
  5
3E
  8
HOLES
 10
54.16725232161471
 20
31.74705207704726
 30
0.0
 40
0.2125
  0
CIRCLE
  5
3F
  8
HOLES
 10
46.08231475102311
 20
31.74705207704726
 30
0.0
 40
0.2125
  0
CIRCLE
  5
40
  8
HOLES
 10
71.8665541954409
 20
51.40450541364716
 30
0.0
 40
0.2125
  0
CIRCLE
  5
41
  8
HOLES
 10
69.19206540425904
 20
52.37964325736243
 30
0.0
 40
0.2125
  0
CIRCLE
  5
42
  8
HOLES
 10
65.76170345314257
 20
57.51606715508968
 30
0.0
 40
0.2125
  0
CIRCLE
  5
43
  8
HOLES
 10
59.90102973877754
 20
55.62789741703694
 30
0.0
 40
0.2125
  0
CIRCLE
  5
44
  8
HOLES
 10
58.52486561065682
 20
58.85588062921216
 30
0.0
 40
0.2125
  0
CIRCLE
  5
45
  8
HOLES
 10
54.1051123375108
 20
53.42353120255831
 30
0.0
 40
0.2125
  0
CIRCLE
  5
46
  8
HOLES
 10
50.72506109753763
 20
58.85588062921217
 30
0.0
 40
0.2125
  0
CIRCLE
  5
47
  8
HOLES
 10
49.52456219442192
 20
58.85588062921217
 30
0.0
 40
0.2125
  0
CIRCLE
  5
48
  8
HOLES
 10
46.14451095444876
 20
53.42353120255831
 30
0.0
 40
0.2125
  0
CIRCLE
  5
49
  8
HOLES
 10
41.72475768130273
 20
58.85588062921216
 30
0.0
 40
0.2125
  0
CIRCLE
  5
4A
  8
HOLES
 10
40.34859355318201
 20
55.62789741703694
 30
0.0
 40
0.2125
  0
CIRCLE
  5
4B
  8
HOLES
 10
34.48791983881698
 20
57.51606715508968
 30
0.0
 40
0.2125
  0
CIRCLE
  5
4C
  8
HOLES
 10
31.0575578877005
 20
52.37964325736243
 30
0.0
 40
0.2125
  0
CIRCLE
  5
4D
  8
HOLES
 10
28.38306909651866
 20
51.40450541364716
 30
0.0
 40
0.2125
  0
CIRCLE
  5
4E
  8
HOLES
 10
20.19496802235536
 20
41.9848883056727
 30
0.0
 40
0.2125
  0
CIRCLE
  5
4F
  8
HOLES
 10
45.66068454177934
 20
47.01157046789805
 30
0.0
 40
0.2125
  0
CIRCLE
  5
50
  8
HOLES
 10
49.26068454177922
 20
47.98460161053094
 30
0.0
 40
0.2125
  0
CIRCLE
  5
51
  8
HOLES
 10
50.98893875018032
 20
47.98460161053094
 30
0.0
 40
0.2125
  0
CIRCLE
  5
52
  8
HOLES
 10
54.58893875018021
 20
47.01157046789805
 30
0.0
 40
0.2125
  0
CIRCLE
  5
53
  8
HOLES
 10
61.31196319963745
 20
42.02571823700033
 30
0.0
 40
0.2125
  0
CIRCLE
  5
54
  8
HOLES
 10
50.98893875018032
 20
42.0226710145817
 30
0.0
 40
0.2125
  0
CIRCLE
  5
55
  8
HOLES
 10
49.26068454177923
 20
42.0226710145817
 30
0.0
 40
0.2125
  0
CIRCLE
  5
56
  8
HOLES
 10
38.9376600923221
 20
42.02571823700033
 30
0.0
 40
0.2125
  0
CIRCLE
  5
57
  8
HOLES
 10
28.55540868568509
 20
41.9848883056727
 30
0.0
 40
0.2125
  0
CIRCLE
  5
58
  8
HOLES
 10
23.78820418280581
 20
35.30616452087362
 30
0.0
 40
0.2125
  0
CIRCLE
  5
59
  8
HOLES
 10
24.96217252523464
 20
35.30616452087362
 30
0.0
 40
0.2125
  0
CIRCLE
  5
5A
  8
HOLES
 10
35.47800240294951
 20
34.75943606156466
 30
0.0
 40
0.2125
  0
CIRCLE
  5
5B
  8
HOLES
 10
47.52871493876935
 20
37.06474025348446
 30
0.0
 40
0.2125
  0
CIRCLE
  5
5C
  8
HOLES
 10
52.72085213386847
 20
37.06474025348446
 30
0.0
 40
0.2125
  0
CIRCLE
  5
5D
  8
HOLES
 10
64.77162088901004
 20
34.75943606156466
 30
0.0
 40
0.2125
  0
CIRCLE
  5
5E
  8
HOLES
 10
54.30503197764464
 20
18.5151116943273
 30
0.0
 40
0.2125
  0
CIRCLE
  5
5F
  8
HOLES
 10
50.71179581719419
 20
25.19383547912638
 30
0.0
 40
0.2125
  0
CIRCLE
  5
60
  8
HOLES
 10
49.53782747476536
 20
25.19383547912638
 30
0.0
 40
0.2125
  0
CIRCLE
  5
61
  8
HOLES
 10
39.02199759705049
 20
25.74056393843534
 30
0.0
 40
0.2125
  0
CIRCLE
  5
62
  8
HOLES
 10
35.5623399076779
 20
18.47428176299967
 30
0.0
 40
0.2125
  0
CIRCLE
  5
63
  8
HOLES
 10
45.94459131431491
 20
18.5151116943273
 30
0.0
 40
0.2125
  0
CIRCLE
  5
64
  8
HOLES
 10
46.11693090348134
 20
9.095494586352842
 30
0.0
 40
0.2125
  0
CIRCLE
  5
65
  8
HOLES
 10
43.4424421122995
 20
8.120356742637568
 30
0.0
 40
0.2125
  0
CIRCLE
  5
66
  8
HOLES
 10
40.01208016118302
 20
2.983932844910321
 30
0.0
 40
0.2125
  0
CIRCLE
  5
67
  8
HOLES
 10
34.15140644681799
 20
4.872102582963059
 30
0.0
 40
0.2125
  0
CIRCLE
  5
68
  8
HOLES
 10
32.77524231869727
 20
1.644119370787841
 30
0.0
 40
0.2125
  0
CIRCLE
  5
69
  8
HOLES
 10
28.35548904555124
 20
7.076468797441692
 30
0.0
 40
0.2125
  0
CIRCLE
  5
6A
  8
HOLES
 10
28.83931545822066
 20
13.48842953210195
 30
0.0
 40
0.2125
  0
CIRCLE
  5
6B
  8
HOLES
 10
26.96979888356754
 20
23.43654969580735
 30
0.0
 40
0.2125
  0
CIRCLE
  5
6C
  8
HOLES
 10
21.78063404379465
 20
23.43654969580735
 30
0.0
 40
0.2125
  0
CIRCLE
  5
6D
  8
HOLES
 10
23.51106124981968
 20
18.4773289854183
 30
0.0
 40
0.2125
  0
CIRCLE
  5
6E
  8
HOLES
 10
25.23931545822077
 20
18.4773289854183
 30
0.0
 40
0.2125
  0
CIRCLE
  5
6F
  8
HOLES
 10
23.51106124981968
 20
12.51925758708557
 30
0.0
 40
0.2125
  0
CIRCLE
  5
70
  8
HOLES
 10
25.23931545822077
 20
12.51925758708557
 30
0.0
 40
0.2125
  0
CIRCLE
  5
71
  8
HOLES
 10
24.97543780557808
 20
1.644119370787827
 30
0.0
 40
0.2125
  0
CIRCLE
  5
72
  8
HOLES
 10
23.77493890246237
 20
1.644119370787827
 30
0.0
 40
0.2125
  0
CIRCLE
  5
73
  8
HOLES
 10
19.91106124981979
 20
13.48842953210195
 30
0.0
 40
0.2125
  0
CIRCLE
  5
74
  8
HOLES
 10
20.3948876624892
 20
7.076468797441692
 30
0.0
 40
0.2125
  0
CIRCLE
  5
75
  8
HOLES
 10
9.728379110989962
 20
25.74056393843534
 30
0.0
 40
0.2125
  0
CIRCLE
  5
76
  8
HOLES
 10
13.18803680036255
 20
18.47428176299967
 30
0.0
 40
0.2125
  0
CIRCLE
  5
77
  8
HOLES
 10
15.97513438934318
 20
1.644119370787841
 30
0.0
 40
0.2125
  0
CIRCLE
  5
78
  8
HOLES
 10
14.59897026122246
 20
4.872102582963059
 30
0.0
 40
0.2125
  0
CIRCLE
  5
79
  8
HOLES
 10
8.738296546857427
 20
2.983932844910321
 30
0.0
 40
0.2125
  0
CIRCLE
  5
7A
  8
HOLES
 10
5.30793459574096
 20
8.120356742637568
 30
0.0
 40
0.2125
  0
CIRCLE
  5
7B
  8
HOLES
 10
2.633445804559102
 20
9.095494586352842
 30
0.0
 40
0.2125
  0
POINT
  5
7D
  8
PUNCH
 10
52.72085213386847
 20
37.56474025348401
 30
0.0
  0
POINT
  5
7E
  8
PUNCH
 10
50.98893875018032
 20
48.48460161053049
 30
0.0
  0
POINT
  5
7F
  8
PUNCH
 10
21.78063404379465
 20
23.93654969580691
 30
0.0
  0
POINT
  5
80
  8
PUNCH
 10
23.51106124981968
 20
13.01925758708512
 30
0.0
  0
LINE
  5
82
  8
SHEET
 10
0.0
 20
0.0
 30
0.0
 11
74.5
 21
0.0
 31
0.0
  0
LINE
  5
83
  8
SHEET
 10
74.5
 20
0.0
 30
0.0
 11
74.5
 21
60.5
 31
0.0
  0
LINE
  5
84
  8
SHEET
 10
74.5
 20
60.5
 30
0.0
 11
0.0
 21
60.5
 31
0.0
  0
LINE
  5
85
  8
SHEET
 10
0.0
 20
60.5
 30
0.0
 11
0.0
 21
0.0
 31
0.0
  0
LINE
  5
87
  8
CUTS
 10
46.66081090648927
 20
23.33463390884263
 30
0.0
 11
46.6607836125899
 21
19.33463390893575
 31
0.0
  0
LINE
  5
88
  8
CUTS
 10
46.6607836125899
 20
19.33463390893575
 30
0.0
 11
48.19337405230974
 21
20.61961116324
 31
0.0
  0
ARC
  5
89
  8
CUTS
 10
50.8612302922598
 20
23.8773731788398
 30
0.0
 40
4.2107564958479
 50
203.4747542521887
 51
230.685164501477
  0
ARC
  5
8A
  8
CUTS
 10
51.17768729845605
 20
23.92954770229097
 30
0.0
 40
4.522481803032943
 50
177.1456128007457
 51
202.4839467381229
  0
LINE
  5
8B
  8
CUTS
 10
46.66081645982913
 20
24.15475757313553
 30
0.0
 11
46.66087195363883
 21
29.1549658348685
 31
0.0
  0
LINE
  5
8C
  8
CUTS
 10
46.66087195363883
 20
29.1549658348685
 30
0.0
 11
46.66086998382308
 21
33.56896583486699
 31
0.0
  0
LINE
  5
8D
  8
CUTS
 10
46.66086998382308
 20
33.56896583486699
 30
0.0
 11
46.66086998381262
 21
33.56898924323194
 31
0.0
  0
LINE
  5
8E
  8
CUTS
 10
46.66086998381262
 20
33.56898924323194
 30
0.0
 11
46.66086972231151
 21
34.15496583486799
 31
0.0
  0
LINE
  5
8F
  8
CUTS
 10
46.66086972231151
 20
34.15496583486799
 30
0.0
 11
46.66086775249577
 21
38.56896583385864
 31
0.0
  0
LINE
  5
90
  8
CUTS
 10
46.66086775249577
 20
38.56896583385864
 30
0.0
 11
46.66068454177923
 21
48.15475757277302
 31
0.0
  0
ARC
  5
91
  8
CUTS
 10
37.74796069478851
 20
48.15475166610531
 30
0.0
 40
8.91272384699268
 50
0.0000379712349405
 51
12.85717942935372
  0
ARC
  5
92
  8
CUTS
 10
37.74796069478103
 20
48.15475166610374
 30
0.0
 40
8.912723847000322
 50
12.85717942935281
 51
25.71432526899973
  0
ARC
  5
93
  8
CUTS
 10
37.74796069478089
 20
48.15475166610359
 30
0.0
 40
8.912723847000507
 50
25.71432526900021
 51
38.57146512729447
  0
ARC
  5
94
  8
CUTS
 10
37.74796069478127
 20
48.15475166610383
 30
0.0
 40
8.912723847000063
 50
38.57146512729477
 51
51.42860925922562
  0
ARC
  5
95
  8
CUTS
 10
37.74796069478068
 20
48.15475166610284
 30
0.0
 40
8.912723847001208
 50
51.42860925922665
 51
64.28575352731215
  0
ARC
  5
96
  8
CUTS
 10
37.74796069478131
 20
48.15475166610367
 30
0.0
 40
8.912723847000189
 50
64.28575352731347
 51
77.14289346894778
  0
ARC
  5
97
  8
CUTS
 10
37.74796069478139
 20
48.15475166610421
 30
0.0
 40
8.912723846999643
 50
77.14289346894753
 51
90.0000379712444
  0
ARC
  5
98
  8
CUTS
 10
37.74796069478125
 20
48.15475166610413
 30
0.0
 40
8.912723846999722
 50
90.00003797124349
 51
102.8571794870349
  0
ARC
  5
99
  8
CUTS
 10
37.7479606947813
 20
48.15475166610416
 30
0.0
 40
8.912723846999706
 50
102.8571794870352
 51
115.714325191033
  0
ARC
  5
9A
  8
CUTS
 10
37.74796069478147
 20
48.15475166610351
 30
0.0
 40
8.912723847000363
 50
115.7143251910322
 51
128.5714653419202
  0
ARC
  5
9B
  8
CUTS
 10
37.74796069478217
 20
48.15475166610302
 30
0.0
 40
8.912723847001185
 50
128.5714653419218
 51
141.4286094790697
  0
ARC
  5
9C
  8
CUTS
 10
37.74796069478191
 20
48.1547516661035
 30
0.0
 40
8.912723847000684
 50
141.428609479071
 51
154.285753756052
  0
ARC
  5
9D
  8
CUTS
 10
37.74796069478186
 20
48.15475166610369
 30
0.0
 40
8.912723847000557
 50
154.285753756053
 51
167.1428937179473
  0
ARC
  5
9E
  8
CUTS
 10
37.74796069478037
 20
48.15475166610399
 30
0.0
 40
8.912723846999034
 50
167.1428937179471
 51
180.0000379712449
  0
LINE
  5
9F
  8
CUTS
 10
28.83523684778329
 20
48.15474575943473
 30
0.0
 11
30.83523685348147
 21
48.15505974304293
 31
0.0
  0
LINE
  5
A0
  8
CUTS
 10
30.83523685348147
 20
48.15505974304293
 30
0.0
 11
29.23369450818159
 21
50.69180216516847
 31
0.0
  0
LINE
  5
A1
  8
CUTS
 10
27.83918909351073
 20
37.16536609115737
 30
0.0
 11
27.8392163874101
 21
41.16536609106426
 31
0.0
  0
LINE
  5
A2
  8
CUTS
 10
27.8392163874101
 20
41.16536609106426
 30
0.0
 11
26.30662594769026
 21
39.88038883676
 31
0.0
  0
ARC
  5
A3
  8
CUTS
 10
23.63876970774029
 20
36.62262682116027
 30
0.0
 40
4.210756495847794
 50
23.47475425218834
 51
50.68516450147742
  0
ARC
  5
A4
  8
CUTS
 10
23.32231270154404
 20
36.57045229770905
 30
0.0
 40
4.522481803032854
 50
357.1456128007455
 51
22.48394673812315
  0
LINE
  5
A5
  8
CUTS
 10
27.83918354017087
 20
36.34524242686447
 30
0.0
 11
27.83912804636117
 21
31.3450341651315
 31
0.0
  0
LINE
  5
A6
  8
CUTS
 10
27.83912804636117
 20
31.3450341651315
 30
0.0
 11
27.83913001617692
 21
26.93103416513301
 31
0.0
  0
LINE
  5
A7
  8
CUTS
 10
27.83913001617692
 20
26.93103416513301
 30
0.0
 11
27.83913001618738
 21
26.93101075676806
 31
0.0
  0
LINE
  5
A8
  8
CUTS
 10
27.83913001618738
 20
26.93101075676806
 30
0.0
 11
27.83913027768849
 21
26.34503416513201
 31
0.0
  0
LINE
  5
A9
  8
CUTS
 10
27.83913027768849
 20
26.34503416513201
 30
0.0
 11
27.83913224750423
 21
21.93103416614136
 31
0.0
  0
LINE
  5
AA
  8
CUTS
 10
27.83913224750423
 20
21.93103416614136
 30
0.0
 11
27.83931545822077
 21
12.34524242722698
 31
0.0
  0
ARC
  5
AB
  8
CUTS
 10
36.75203930521322
 20
12.34524833389489
 30
0.0
 40
8.912723846994407
 50
180.0000379712362
 51
192.8571794293525
  0
ARC
  5
AC
  8
CUTS
 10
36.75203930521833
 20
12.34524833389604
 30
0.0
 40
8.912723846999642
 50
192.8571794293524
 51
205.7143252690003
  0
ARC
  5
AD
  8
CUTS
 10
36.7520393052184
 20
12.34524833389596
 30
0.0
 40
8.912723846999672
 50
205.7143252689996
 51
218.5714651272951
  0
ARC
  5
AE
  8
CUTS
 10
36.75203930521887
 20
12.3452483338963
 30
0.0
 40
8.912723847000255
 50
218.5714651272949
 51
231.4286092592255
  0
ARC
  5
AF
  8
CUTS
 10
36.75203930521887
 20
12.34524833389644
 30
0.0
 40
8.912723847000368
 50
231.428609259226
 51
244.2857535273127
  0
ARC
  5
B0
  8
CUTS
 10
36.75203930521876
 20
12.34524833389652
 30
0.0
 40
8.912723847000386
 50
244.2857535273136
 51
257.1428934689477
  0
ARC
  5
B1
  8
CUTS
 10
36.7520393052186
 20
12.34524833389572
 30
0.0
 40
8.912723846999576
 50
257.1428934689475
 51
270.0000379712444
  0
ARC
  5
B2
  8
CUTS
 10
36.75203930521878
 20
12.34524833389565
 30
0.0
 40
8.912723846999503
 50
270.0000379712433
 51
282.857179487035
  0
ARC
  5
B3
  8
CUTS
 10
36.75203930521852
 20
12.34524833389636
 30
0.0
 40
8.912723847000253
 50
282.8571794870356
 51
295.7143251910326
  0
ARC
  5
B4
  8
CUTS
 10
36.75203930521851
 20
12.34524833389652
 30
0.0
 40
8.912723847000402
 50
295.7143251910323
 51
308.5714653419201
  0
ARC
  5
B5
  8
CUTS
 10
36.75203930521793
 20
12.3452483338969
 30
0.0
 40
8.912723847001065
 50
308.5714653419216
 51
321.4286094790696
  0
ARC
  5
B6
  8
CUTS
 10
36.75203930521717
 20
12.34524833389707
 30
0.0
 40
8.912723847001761
 50
321.4286094790718
 51
334.2857537560512
  0
ARC
  5
B7
  8
CUTS
 10
36.7520393052182
 20
12.34524833389626
 30
0.0
 40
8.912723847000487
 50
334.2857537560531
 51
347.1428937179475
  0
ARC
  5
B8
  8
CUTS
 10
36.75203930522017
 20
12.34524833389595
 30
0.0
 40
8.9127238469985
 50
347.1428937179467
 51
0.0000379712452293
  0
LINE
  5
B9
  8
CUTS
 10
45.66476315221671
 20
12.34525424056527
 30
0.0
 11
43.66476314651853
 21
12.34494025695707
 31
0.0
  0
LINE
  5
BA
  8
CUTS
 10
43.66476314651853
 20
12.34494025695707
 30
0.0
 11
45.26630549181841
 21
9.808197834831532
 31
0.0
  0
POINT
  5
BB
  8
PUNCH
 10
50.72506109753763
 20
59.35588062921173
 30
0.0
  0
POINT
  5
BC
  8
PUNCH
 10
50.72506109753763
 20
58.35588062921262
 30
0.0
  0
POINT
  5
BD
  8
PUNCH
 10
50.12478353631891
 20
57.63964211395916
 30
0.0
  0
POINT
  5
BE
  8
PUNCH
 10
61.31196319963745
 20
41.52571823700078
 30
0.0
  0
POINT
  5
BF
  8
PUNCH
 10
50.12478353631891
 20
38.68964211395915
 30
0.0
  0
POINT
  5
C0
  8
PUNCH
 10
50.71179581719419
 20
25.69383547912593
 30
0.0
  0
POINT
  5
C1
  8
PUNCH
 10
50.71179581719419
 20
24.69383547912683
 30
0.0
  0
POINT
  5
C2
  8
PUNCH
 10
50.12478353631891
 20
19.13964211395916
 30
0.0
  0
POINT
  5
C3
  8
PUNCH
 10
23.78820418280581
 20
35.80616452087317
 30
0.0
  0
POINT
  5
C4
  8
PUNCH
 10
23.78820418280581
 20
34.80616452087407
 30
0.0
  0
POINT
  5
C5
  8
PUNCH
 10
23.78820418280581
 20
34.80616452087407
 30
0.0
  0
POINT
  5
C6
  8
PUNCH
 10
24.37521646368109
 20
41.36035788604084
 30
0.0
  0
POINT
  5
C7
  8
PUNCH
 10
24.37521646368109
 20
21.81035788604085
 30
0.0
  0
POINT
  5
C8
  8
PUNCH
 10
24.37521646368109
 20
2.860357886040845
 30
0.0
  0
POINT
  5
C9
  8
PUNCH
 10
23.77493890246237
 20
2.144119370787379
 30
0.0
  0
POINT
  5
CA
  8
PUNCH
 10
23.77493890246237
 20
1.144119370788275
 30
0.0
  0
POINT
  5
CB
  8
PUNCH
 10
13.18803680036255
 20
18.97428176299922
 30
0.0
  0
LINE
  5
CC
  8
CUTS
 10
32.84608259392117
 20
59.63964211395948
 30
0.0
 11
49.87478353631891
 21
59.63964211395948
 31
0.0
  0
LINE
  5
CD
  8
CUTS
 10
50.3747835363189
 20
59.63964211395948
 30
0.0
 11
67.40348447871665
 21
59.63964211395948
 31
0.0
  0
LINE
  5
CE
  8
CUTS
 10
67.86883168652075
 20
59.46759352612813
 30
0.0
 11
73.43962564861218
 21
54.69608062346225
 31
0.0
  0
LINE
  5
CF
  8
CUTS
 10
73.64589159052565
 20
54.24782401669537
 30
0.0
 11
73.64589159052571
 21
43.65961701961534
 31
0.0
  0
LINE
  5
D0
  8
CUTS
 10
73.50782093804095
 20
43.18132674167408
 30
0.0
 11
65.53572424170326
 21
30.52393866214252
 31
0.0
  0
LINE
  5
D1
  8
CUTS
 10
65.26925465459806
 20
30.10086188524738
 30
0.0
 11
57.30812528762672
 21
17.46088675857798
 31
0.0
  0
LINE
  5
D2
  8
CUTS
 10
26.60367548211195
 20
47.4123905006854
 30
0.0
 11
26.60367548211216
 21
54.24782401669536
 31
0.0
  0
LINE
  5
D3
  8
CUTS
 10
26.80994142402561
 20
54.69608062346223
 30
0.0
 11
32.38073538611706
 21
59.46759352612813
 31
0.0
  0
LINE
  5
D4
  8
CUTS
 10
47.69005857597439
 20
5.803919376537771
 30
0.0
 11
42.11926461388294
 21
1.032406473871864
 31
0.0
  0
LINE
  5
D5
  8
CUTS
 10
47.89632451788805
 20
13.0876094993146
 30
0.0
 11
47.89632451788784
 21
6.252175983304639
 31
0.0
  0
LINE
  5
D6
  8
CUTS
 10
9.230745345401944
 20
30.39913811475262
 30
0.0
 11
17.19187471237328
 21
43.03911324142204
 31
0.0
  0
LINE
  5
D7
  8
CUTS
 10
0.9921790619590531
 20
17.31867325832592
 30
0.0
 11
8.964275758296749
 21
29.97606133785749
 31
0.0
  0
LINE
  5
D8
  8
CUTS
 10
0.8541084094743492
 20
6.252175983304632
 30
0.0
 11
0.8541084094742932
 21
16.84038298038466
 31
0.0
  0
LINE
  5
D9
  8
CUTS
 10
6.631168313479253
 20
1.032406473871862
 30
0.0
 11
1.060374351387803
 21
5.803919376537762
 31
0.0
  0
LINE
  5
DA
  8
CUTS
 10
24.1252164636811
 20
0.8603578860405179
 30
0.0
 11
7.096515521283357
 21
0.8603578860405179
 31
0.0
  0
LINE
  5
DB
  8
CUTS
 10
41.65391740607883
 20
0.8603578860405179
 30
0.0
 11
24.6252164636811
 21
0.8603578860405179
 31
0.0
  0
LINE
  5
DC
  8
CUTS
 10
26.74174607730909
 20
46.93410020023109
 30
0.0
 11
28.85938447301661
 21
43.57189640864308
 31
0.0
  0
LINE
  5
DD
  8
CUTS
 10
17.62056558720585
 20
43.27574253064618
 30
0.0
 11
28.74591297097459
 21
43.27574253065121
 31
0.0
  0
LINE
  5
DE
  8
CUTS
 10
45.64061552698338
 20
16.92810359135692
 30
0.0
 11
47.7582539226909
 21
13.56589979976892
 31
0.0
  0
LINE
  5
DF
  8
CUTS
 10
56.87943441279415
 20
17.22425746935381
 30
0.0
 11
45.75408702902546
 21
17.22425746934878
 31
0.0
  0
LINE
  5
E0
  8
CUTS
 10
37.38323464139847
 20
30.03846151572014
 30
0.0
 11
45.37414624418645
 21
17.35118055991664
 31
0.0
  0
LINE
  5
E1
  8
CUTS
 10
29.12585375581355
 20
43.14881944008336
 30
0.0
 11
37.11676535860153
 21
30.46153848427986
 31
0.0
  0
ENDSEC
  0
EOF
